<?xml version='1.0' encoding='utf-8'?>
<svg xmlns="http://www.w3.org/2000/svg" width="162.17mm" height="162.09mm" clip-rule="evenodd" fill-rule="evenodd" image-rendering="optimizeQuality" shape-rendering="geometricPrecision" text-rendering="geometricPrecision" version="1.1" viewBox="0 0 16217 16209">
 <defs>
  <style type="text/css">
   
    .str0 {stroke:black;stroke-width:2.03}
    .str1 {stroke:#FEFEFE;stroke-width:20}
    .fil1 {fill:none}
    .fil3 {fill:#FEFEFE}
    .fil2 {fill:black}
    .fil4 {fill:#B82930}
    .fil0 {fill:white}
   
  </style>
 </defs>
   <polygon class="fil0" points="2373 2373 2675 2079 2992 1811 3318 1566 3653 1339 3986 1119 4336 931 4695 752 5062 596 5429 458 5803 336 6177 230 6569 148 6951 83 7343 42 7725 10 8109 1 8492 10 8892 42 9274 83 9665 148 10040 230 10414 336 10789 458 11156 596 11522 752 11881 931 12231 1119 12581 1339 12916 1566 13225 1811 13543 2079 13845 2373 14138 2667 14399 2984 14651 3302 14878 3636 15099 3987 15286 4328 15466 4695 15621 5053 15759 5420 15882 5795 15987 6169 16070 6553 16135 6943 16176 7327 16207 7717 16216 8101 16207 8492 16176 8883 16135 9266 16070 9657 15987 10040 15882 10414 15759 10790 15621 11156 15466 11514 15286 11881 15099 12222 14878 12573 14651 12908 14399 13225 14138 13534 13845 13837 13543 14130 13225 14399 12916 14643 12581 14870 12231 15090 11881 15278 11522 15458 11156 15613 10789 15751 10414 15873 10040 15979 9665 16061 9274 16126 8892 16168 8492 16199 8109 16208 7725 16199 7343 16168 6951 16126 6569 16061 6177 15979 5803 15873 5429 15751 5062 15613 4695 15458 4336 15278 3986 15090 3653 14870 3318 14643 2992 14399 2675 14130 2373 13837 2096 13534 1819 13225 1566 12908 1339 12573 1119 12222 931 11881 752 11514 596 11156 458 10790 336 10414 238 10040 147 9657 82 9266 42 8883 10 8492 1 8101 10 7717 42 7327 82 6943 147 6553 238 6169 336 5795 458 5420 596 5053 752 4695 931 4328 1119 3987 1339 3636 1566 3302 1819 2984 2096 2667"/>
   <polyline class="fil1 str0" points="2373 2373 2675 2079 2992 1811 3318 1566 3653 1339 3986 1119 4336 931 4695 752 5062 596 5429 458 5803 336 6177 230 6569 148 6951 83 7343 42 7725 10 8109 1 8492 10 8892 42 9274 83 9665 148 10040 230 10414 336 10789 458 11156 596 11522 752 11881 931 12231 1119 12581 1339 12916 1566 13225 1811 13543 2079 13845 2373 14138 2667 14399 2984 14651 3302 14878 3636 15099 3987 15286 4328 15466 4695 15621 5053 15759 5420 15882 5795 15987 6169 16070 6553 16135 6943 16176 7327 16207 7717 16216 8101 16207 8492 16176 8883 16135 9266 16070 9657 15987 10040 15882 10414 15759 10790 15621 11156 15466 11514 15286 11881 15099 12222 14878 12573 14651 12908 14399 13225 14138 13534 13845 13837 13543 14130 13225 14399 12916 14643 12581 14870 12231 15090 11881 15278 11522 15458 11156 15613 10789 15751 10414 15873 10040 15979 9665 16061 9274 16126 8892 16168 8492 16199 8109 16208 7725 16199 7343 16168 6951 16126 6569 16061 6177 15979 5803 15873 5429 15751 5062 15613 4695 15458 4336 15278 3986 15090 3653 14870 3318 14643 2992 14399 2675 14130 2373 13837 2096 13534 1819 13225 1566 12908 1339 12573 1119 12222 931 11881 752 11514 596 11156 458 10790 336 10414 238 10040 147 9657 82 9266 42 8883 10 8492 1 8101 10 7717 42 7327 82 6943 147 6553 238 6169 336 5795 458 5420 596 5053 752 4695 931 4328 1119 3987 1339 3636 1566 3302 1819 2984 2096 2667 2373 2373"/>
    <path class="fil2" d="m6891 5231c-114 214-144 421-175 663-9 67-10 124-23 187-17 79-39 167-73 242-91 202-139 240-22 471 18 35 31 62 48 97 39 76 97 150 155 212 48 52 125 147 181 185-203 303-268 499-268 904 0 111 30 211 68 305 13 32 23 61 37 88 27 55 55 111 85 164 8 13 98 150 98 151 0 118-223 379-223 648 0 154 73 257 158 373 56 74 157 149 163 158l-63 80c-23 30-41 60-61 90-14 21-141 241-46 249 1 35 9 36 39 38 57 3 5 51 156-33 39-22 70-40 105-65 93-64 180-126 265-200 56-48 113-21 185-32 53-8 112-1 167-3 34-1 41-7 79-7 227 0 263-30 388-35 179-7 717 147 870 147-16 68-164 295-52 327l19 7c25 13 1 15 39 20 13 1 18-1 31 2 24 5 8 11 22 11 55 0 183-92 226-121 68-45 134-99 191-156l85-85c27-27 60-72 89-88 42-22 72-35 111-60 104-65 193-165 254-270 43-76 79-145 120-227 66-132 161-406 129-559 45-4 389-138 471-164 27-9 50-9 60-32 8-21-24-69-31-87-30-74-97-211-113-280 64-34 504-204 504-223 0-56-147-487-170-590 29-2 46-14 74-23 29-10 46-16 73-26 29-12 429-145 429-160 0-57-38-133-54-189l-145-477c-5-17-9-27-15-44-6-18-8-36-15-50 17-8 77-23 102-29 244-61 484-144 721-223l499-168c86-28 220-71 289-117-8-105-202-498-268-629l-295-603c-19-38-77-142-85-177-42 0-77 21-111 40l-437 244-1453 939c-89 59-65 41 41 200l606 913c21 31 94 130 96 160-44 4-434 163-505 189-107 40-92-5 52 356 22 55 41 103 64 159 14 35 59 131 62 161-32 7-340 172-374 190 5 58 164 329 184 413-61 29-213 111-269 124l-39-229c-37-222-103-434-152-655l-50-218c-56-221-95-445-133-672-38-225-79-472-103-703l-26-243c-47-431-57-457-198-811-7-16-12-37-20-52 99 0 556-152 628-178l283-124c111-56 218-115 321-183 20-14 39-24 60-38 272-183 385-276 603-511 27-29 148-149 124-173-16-16-326 15-374 14-61 0-316 14-370 24-238 43-439 95-651 161-316 99-720 311-1004 510-93 65-22 61-266-35-72-28-140-50-217-72-427-119-918-96-1331 42l-173 62c-19 9-42 21-63 22-9-31-46-59-67-83-12-13-12-17-23-30-126-141-272-301-417-422-113-95-230-191-351-277l-384-245c-89-53-185-99-281-139-109-45-359-166-462-166-41 0-6 46 2 63l103 212c46 92 104 180 157 268 26 43 56 84 85 125l338 396 3 3c76 73 163 162 246 226l84 73c213 168 273 207 501 344 20 11 50 33 73 39z"/>
     <path class="fil3" d="m8815 5785c-72 17-120 57-146 111-122 251 116 452 309 394 221-66 233-359 54-469-55-34-146-53-217-36z"/>
     <path class="fil3" d="m7151 5758c-250 38-264 496 14 487 132-5 181-122 186-254 6-137-54-255-200-233z"/>
    <path class="fil1 str1" d="m7536 6605c32 30 60 66 97 91 9 7 23 4 34 0 56-19 108-48 164-67 18-7 39-16 58-10 84 28 158 79 241 109 14 5 30 0 44-5 48-18 93-43 140-65"/>
    <path class="fil3" d="m7834 6384c-49-15-71-39-85-66l174-6c-30 24-59 48-89 72z"/>
   <path class="fil4" d="m4300 3464l8483 8466 42-49 188-244 171-245 172-252 138-254 131-260 113-269 107-276 89-269 73-286 74-284 41-277 32-293 25-286 8-277-8-285-25-286-32-294-41-276-74-284-73-270-89-285-107-277-113-261-131-268-138-253-172-253-171-244-188-237-195-228-221-227-220-212-235-196-244-179-253-179-244-155-269-139-268-130-270-115-285-105-269-82-293-73-285-65-293-58-277-24-294-25-293-8-285 8-294 25-294 24-285 58-292 65-278 73-285 82-268 105-277 115-269 130-261 139-252 155-253 179-224 170zm7564 9338l-8463-8457-180 228-180 244-154 253-147 253-139 268-114 261-106 277-90 285-73 270-66 284-48 276-33 294-24 286-8 285 8 277 24 286 33 293 48 277 66 284 73 286 90 269 106 276 114 269 139 260 147 254 154 252 180 245 187 244 204 228 220 219 212 212 244 196 236 180 253 178 252 155 261 147 269 122 277 115 268 105 285 82 278 73 292 65 285 58 294 25 294 24 285 8 293-8 294-24 277-25 293-58 285-65 293-73 269-82 285-105 270-115 268-122 269-147 244-155 253-178 154-114zm-9214-10152l286-286 293-252 318-236 310-221 324-203 335-187 350-162 343-147 342-139 366-114 359-98 366-82 366-65 359-41 383-16 359-17 375 17 366 16 375 41 367 65 350 82 367 98 358 114 350 139 351 147 333 162 335 187 325 203 318 221 310 236 301 252 277 286 278 277 260 302 237 309 220 319 204 324 186 327 163 342 147 351 139 349 113 359 99 359 81 358 65 366 41 383 17 358 16 368-16 375-17 358-41 383-65 367-81 349-99 368-113 358-139 350-147 351-163 333-186 335-204 325-220 318-237 310-260 301-278 277-277 278-301 260-310 229-318 228-325 204-335 186-333 163-351 147-350 139-358 113-367 99-350 73-367 57-375 57-366 17-375 16-359-16-383-17-359-57-366-57-366-73-359-99-366-113-342-139-343-147-350-163-335-186-324-204-310-228-318-229-293-260-286-278-277-277-253-301-236-310-220-318-196-325-195-335-162-333-147-351-139-350-114-358-90-368-89-349-57-367-41-383-33-358v-743l33-358 41-383 57-366 89-358 90-359 114-359 139-349 147-351 162-342 195-327 196-324 220-319 236-309 253-302 277-277z"/>
</svg>